PathFileType  4	(X/Y/Z) C:\Users\antoi\Documents\MyRepositories\mobilecap\ResultsAnalysis
DataRate	CameraRate	NumFrames	NumMarkers	Units	OrigDataRate	OrigDataStartFrame	OrigNumFrames
100.0	100.0	5	51	mm	100.0	1	231
Frame#	Time	r_knee			r_shank_antsup			r_ankle			r_calc			r_5meta			r_toe			L_knee			L_shank_antsup			L_ankle			L_calc			L_5meta			L_toe			r_sh2			r_sh3			r_sh4			L_sh2			L_sh3			r_thigh1			r_thigh2			r_thigh3			r_thigh4			r_thigh5			L_thigh1			L_thigh2			L_thigh3			L_thigh4			r.ASIS			r.PSIS			L.ASIS			L.PSIS			C7			R_Shoulder			L_Shoulder			R_Sternum			L_Sternum			R_humerus			R_elbow_med			R_elbow_lat			R_forearm			R_wrist_radius			R_wrist_ulna			L_humerus			L_elbow_med			L_elbow_lat			L_forearm			L_wrist_radius			L_wrist_ulna			R_HJC			L_HJC			R_HJC_reg			L_HJC_reg			
		X1	Y1	Z1	X2	Y2	Z2	X3	Y3	Z3	X4	Y4	Z4	X5	Y5	Z5	X6	Y6	Z6	X7	Y7	Z7	X8	Y8	Z8	X9	Y9	Z9	X10	Y10	Z10	X11	Y11	Z11	X12	Y12	Z12	X13	Y13	Z13	X14	Y14	Z14	X15	Y15	Z15	X16	Y16	Z16	X17	Y17	Z17	X18	Y18	Z18	X19	Y19	Z19	X20	Y20	Z20	X21	Y21	Z21	X22	Y22	Z22	X23	Y23	Z23	X24	Y24	Z24	X25	Y25	Z25	X26	Y26	Z26	X27	Y27	Z27	X28	Y28	Z28	X29	Y29	Z29	X30	Y30	Z30	X31	Y31	Z31	X32	Y32	Z32	X33	Y33	Z33	X34	Y34	Z34	X35	Y35	Z35	X36	Y36	Z36	X37	Y37	Z37	X38	Y38	Z38	X39	Y39	Z39	X40	Y40	Z40	X41	Y41	Z41	X42	Y42	Z42	X43	Y43	Z43	X44	Y44	Z44	X45	Y45	Z45	X46	Y46	Z46	X47	Y47	Z47	X48	Y48	Z48	X49	Y49	Z49	X50	Y50	Z50	X51	Y51	Z51	

1	0.00000000	-1169.08990	853.77183	-425.93319	-1142.81102	755.09228	-437.97588	-1251.79787	429.39290	-465.34116	-1335.85672	382.73472	-510.33277	-1139.74890	356.36113	-421.62783	-1082.23916	384.41153	-485.96290	-1155.38652	845.97532	-735.38562	-1162.67262	754.29456	-756.22770	-1256.92897	431.87033	-692.77840	-1337.81087	383.22835	-637.41504	-1147.52894	359.34474	-728.48027	-1087.63112	386.23680	-664.84813	-1170.99332	647.68397	-414.54371	-1201.65998	780.77769	-394.65127	-1248.66997	672.85104	-391.08823	-1251.00320	775.20049	-749.81224	-1264.99564	654.11336	-741.53564	-1084.80380	1174.19035	-396.32731	-1083.91182	1064.62928	-410.15640	-1138.03595	1036.80715	-383.63555	-1197.15848	1167.98261	-392.96018	-1188.47394	1054.23039	-399.73641	-1072.62997	1135.17691	-753.97871	-1068.64157	995.20936	-736.96711	-1182.40225	1128.27045	-770.98503	-1181.86824	991.72755	-758.52705	-1072.84488	1391.76346	-446.59598	-1255.77394	1401.47376	-517.53564	-1066.25749	1382.95642	-697.19741	-1255.14395	1400.82084	-629.71931	-1117.80779	1947.44632	-580.31827	-1074.74660	1878.78497	-412.40676	-1099.85909	1880.33112	-748.46992	-1020.66160	1833.52023	-552.15309	-1023.99712	1830.41994	-609.69872	-1107.94669	1724.88780	-341.11250	-1254.67950	1557.40778	-368.66726	-1223.47692	1571.63709	-290.72687	-1185.57193	1400.38161	-269.38738	-1152.50178	1309.34481	-277.56013	-1193.88158	1316.36655	-256.52984	-1154.22615	1763.12836	-821.72531	-1256.37696	1547.92348	-757.27251	-1244.79187	1556.95143	-838.99065	-1212.62713	1488.29451	-862.65516	-1182.62524	1311.12053	-868.71832	-1223.23285	1308.92485	-876.79971	-1152.20203	1274.25932	-464.72041	-1153.23123	1274.41193	-671.67856	-1129.36534	1304.87462	-481.67149	-1128.43564	1303.91110	-647.22224	
2	0.01000000	-1168.65127	853.74113	-426.17003	-1142.41478	755.13440	-438.22049	-1251.66203	429.49851	-465.44224	-1335.85445	382.63277	-510.16957	-1139.73574	356.33824	-421.65854	-1082.29661	384.38339	-485.97791	-1155.54951	846.13367	-735.58545	-1162.79659	754.29023	-756.17535	-1256.87779	431.88574	-692.79317	-1337.61678	382.90413	-637.62204	-1147.52002	359.35485	-728.47369	-1087.54304	386.21809	-664.89053	-1170.83216	647.77894	-414.81440	-1201.04698	780.81503	-394.97831	-1248.14915	672.94570	-391.07238	-1251.05788	775.26694	-750.42698	-1265.02930	654.12815	-741.84523	-1084.16564	1174.13060	-396.47983	-1083.19321	1064.50286	-410.10362	-1137.56503	1036.84247	-383.89837	-1196.64046	1167.88169	-393.19032	-1187.97328	1054.03031	-400.24015	-1072.18248	1134.84074	-753.68464	-1068.41614	994.99235	-736.83491	-1181.58926	1128.53216	-771.42906	-1181.64179	991.84332	-758.64810	-1071.90761	1391.67182	-446.73790	-1255.01202	1401.66018	-517.93508	-1065.07493	1382.82238	-697.37259	-1253.35749	1400.65630	-631.22866	-1114.56684	1947.35699	-580.89467	-1071.67062	1878.49494	-413.54366	-1096.48681	1880.17080	-749.11344	-1018.11417	1833.25205	-552.75706	-1021.05929	1830.09046	-610.01325	-1106.41933	1725.10023	-341.52313	-1254.33502	1559.33754	-369.16954	-1223.68099	1573.24535	-290.95505	-1189.60341	1401.58959	-268.17939	-1158.53836	1309.63626	-275.87570	-1199.84812	1317.62685	-255.40086	-1151.83935	1763.50387	-822.38500	-1255.46656	1549.49707	-757.87495	-1244.74069	1558.45762	-839.71719	-1214.23835	1489.20328	-863.24071	-1188.31048	1311.30275	-870.47197	-1229.03777	1310.01291	-878.06068	-1151.47193	1274.26611	-465.17188	-1151.83516	1274.29413	-672.13219	-1129.26576	1305.16383	-482.11071	-1126.84967	1303.69484	-647.66862	
3	0.02000000	-1168.22506	853.73832	-426.29917	-1142.04819	755.10205	-438.44331	-1251.61017	429.61465	-465.44072	-1336.11291	382.64002	-510.10335	-1139.71504	356.32632	-421.71639	-1082.27150	384.37506	-485.99100	-1155.88798	846.26717	-735.76527	-1163.07391	754.35714	-756.21003	-1256.83595	431.86869	-692.81309	-1337.74305	382.96707	-637.55986	-1147.51540	359.35540	-728.46809	-1087.56636	386.19404	-664.85909	-1170.64209	647.79379	-414.98418	-1200.99010	780.33601	-395.35912	-1247.70391	672.91945	-391.10658	-1251.27483	775.22446	-750.80135	-1265.17530	654.00841	-741.98802	-1083.49062	1174.03789	-396.60000	-1082.65407	1064.46483	-410.04439	-1137.07095	1036.75955	-384.08838	-1196.06102	1168.25302	-393.37131	-1187.38717	1054.08358	-400.40771	-1071.46284	1134.67791	-753.66251	-1068.24677	994.76206	-736.80970	-1180.74522	1128.76270	-771.78657	-1181.47388	991.96521	-758.78076	-1070.92995	1391.48356	-446.98857	-1253.63245	1401.68455	-519.08249	-1063.82946	1382.67494	-697.59427	-1251.85788	1400.81287	-632.13794	-1111.19434	1947.21294	-581.41168	-1068.74821	1878.36191	-414.52407	-1093.04494	1879.96529	-749.70179	-1014.42231	1832.66182	-552.76713	-1018.00129	1829.71520	-610.40895	-1104.73894	1725.29842	-341.93883	-1254.16677	1561.47243	-369.44425	-1223.88772	1575.02231	-291.01949	-1193.72940	1402.80817	-267.20774	-1164.75969	1310.05826	-274.31136	-1205.99953	1319.10570	-254.26660	-1149.37852	1763.87937	-823.12570	-1255.32070	1551.07395	-758.22438	-1244.79248	1559.99515	-840.09668	-1215.89320	1490.26859	-864.09088	-1194.34158	1311.72089	-871.96857	-1235.24525	1311.50214	-879.49726	-1150.66736	1274.18737	-465.80676	-1150.48645	1274.26391	-672.76752	-1128.23906	1304.93674	-482.52071	-1125.65134	1303.66602	-648.05861	
4	0.03000000	-1167.85940	853.78558	-426.29492	-1141.75882	755.04472	-438.61626	-1251.59836	429.65201	-465.42103	-1336.31325	382.44254	-510.21049	-1139.70703	356.34986	-421.73111	-1082.20911	384.38784	-485.99365	-1156.39243	846.36737	-735.91850	-1163.44758	754.47557	-756.39489	-1256.81353	431.80926	-692.87241	-1337.95395	383.15750	-637.44781	-1147.52331	359.34614	-728.46774	-1087.62265	386.17340	-664.81806	-1170.45974	647.74265	-415.08278	-1201.25247	779.73563	-395.62598	-1247.43139	672.88308	-391.11618	-1251.65677	775.12571	-751.03862	-1265.40013	653.79217	-742.07069	-1082.77090	1173.89483	-396.81704	-1082.31089	1064.47048	-410.01701	-1136.54794	1036.62588	-384.24062	-1195.41579	1168.78231	-393.63203	-1186.78894	1054.27156	-400.34959	-1070.85257	1134.44272	-753.57905	-1068.17074	994.53164	-736.91972	-1179.96440	1128.95000	-772.06728	-1181.38343	992.13263	-758.99985	-1069.84373	1391.18042	-447.28319	-1251.38388	1401.46537	-521.03433	-1062.48621	1382.44606	-697.75399	-1250.52833	1401.32609	-632.50561	-1107.65644	1947.02270	-581.91290	-1065.73644	1878.45016	-415.10767	-1089.47505	1879.71908	-750.23191	-1010.07906	1831.82453	-552.58291	-1014.85667	1829.23315	-610.90647	-1103.03505	1725.47116	-342.25919	-1254.30768	1563.70422	-369.67435	-1224.14924	1576.94822	-291.15059	-1198.04199	1404.11152	-266.53861	-1171.20018	1310.72729	-272.82491	-1212.32123	1320.89155	-253.06962	-1146.84696	1764.21088	-823.64391	-1256.24250	1552.74923	-758.52982	-1244.90434	1561.71136	-840.35084	-1217.67895	1491.49416	-864.88003	-1200.78658	1312.45103	-873.18017	-1241.82591	1313.40955	-881.08175	-1149.71893	1273.99371	-466.60292	-1149.07054	1274.28095	-673.56239	-1126.07104	1304.03940	-482.82781	-1124.79614	1303.83512	-648.30870	
5	0.04000000	-1167.54551	853.85160	-426.25406	-1141.53655	755.00978	-438.74311	-1251.58110	429.57077	-465.50771	-1336.26024	382.02209	-510.39381	-1139.71989	356.39828	-421.67976	-1082.22618	384.39111	-485.98022	-1156.90542	846.48063	-736.15486	-1163.82500	754.54293	-756.66080	-1256.81309	431.72864	-692.97638	-1337.96983	383.15625	-637.51696	-1147.54457	359.33536	-728.47127	-1087.62233	386.16716	-664.83311	-1170.30923	647.67897	-415.16748	-1201.31780	779.54515	-395.68531	-1247.26354	672.94188	-391.12959	-1252.10338	775.03740	-751.28170	-1265.67395	653.62563	-742.20000	-1082.04391	1173.72422	-397.35076	-1081.90949	1064.34822	-410.24420	-1136.01710	1036.54712	-384.38222	-1194.70027	1168.98103	-393.92094	-1186.28314	1054.34473	-400.41911	-1070.41813	1134.14150	-753.55727	-1068.19141	994.29569	-737.16708	-1179.34787	1129.12046	-772.34217	-1181.35620	992.38575	-759.39326	-1068.65621	1390.88791	-447.50499	-1249.61325	1401.55603	-522.10549	-1061.07044	1382.14530	-697.86249	-1249.05497	1401.85041	-632.84479	-1104.01890	1946.81330	-582.47859	-1062.37141	1878.65027	-415.19648	-1085.76831	1879.44087	-750.70235	-1006.39583	1830.94945	-552.76357	-1011.63241	1828.66365	-611.24280	-1101.40875	1725.60307	-342.56098	-1254.92914	1565.83807	-370.05051	-1224.51427	1578.92116	-291.60319	-1202.55319	1405.64751	-265.95487	-1177.84719	1311.63636	-271.33295	-1218.74700	1322.99285	-251.70188	-1144.26510	1764.43838	-823.82912	-1257.44358	1554.72226	-759.08967	-1245.04185	1563.63279	-840.81104	-1219.61514	1492.79633	-865.31565	-1207.46957	1313.44594	-874.25735	-1248.51954	1315.55517	-882.50560	-1148.84868	1273.91276	-467.08689	-1147.85730	1274.30571	-674.04489	-1124.55372	1303.48003	-483.18547	-1123.69520	1303.90824	-648.60766	
